<svg width="1023" height="1103" viewBox="0 0 1023 1103" fill="none" xmlns="http://www.w3.org/2000/svg">
<g clip-path="url(#clip0)">
<path opacity="0.5" d="M704.365 37.6942C824.303 138.217 842.889 328.298 924.119 468.527C952.396 517.322 988.933 560.992 1008 615.123C1051.76 739.026 991.528 879.572 910.907 977.981C872.464 1024.93 827.56 1067.94 773.23 1087.72C731.45 1102.94 686.652 1103.57 642.675 1103.97L-127.79 1111.9C-213.81 1112.77 -309.39 1109.62 -371.24 1043.21C-413.87 997.478 -431.18 930.692 -445.88 866.944C-463.93 788.613 -480.3 703.546 -452.2 628.94C-420.11 543.582 -338.96 495.21 -288.55 421.555C-206.74 302.223 -208.62 121.731 -104.44 26.4664C-55.7999 -17.9959 8.37999 -35.4321 70.917 -44.1502C188.816 -60.6089 300.494 -29.5408 416.275 -33.8734C515.244 -37.572 622.261 -31.1259 704.365 37.6942Z" fill="#E7ECFF"/>
<path opacity="0.24" d="M462.922 933.613C509.371 938.283 557.246 943.419 598.119 966.264C603.59 969.328 609.144 972.942 612.163 978.458C618.22 989.553 611.345 1004.18 600.676 1010.86C590.007 1017.53 576.844 1018.29 564.288 1018.84C340.721 1028.59 116.819 1024.76 -106.94 1020.96C-171.91 1019.86 -237.92 1018.59 -300.19 999.718C-311.39 996.337 -323.69 991.265 -327.9 980.212C-333.42 965.757 -320.84 949.737 -306.17 945.236C-291.5 940.735 -275.84 944.095 -260.66 946.06C-207.97 952.886 -154.81 942.446 -102.35 934.099C0.360023 917.784 106.925 904.512 210.954 902.039C246.419 901.215 276.707 913.515 311.418 918.376C361.535 925.434 412.533 928.541 462.922 933.613Z" fill="#505F98"/>
<path d="M645.631 500.326L529.802 264.408L460.815 298.19L576.645 534.108L645.631 500.326Z" fill="white"/>
<path d="M618.786 493.055L604.673 464.22L558.209 486.903L572.322 515.738L618.786 493.055Z" fill="#505F98"/>
<path d="M618.786 493.055L604.673 464.22L558.209 486.903L572.322 515.738L618.786 493.055Z" fill="url(#paint0_linear)"/>
<path d="M604.671 464.445L590.557 435.61L544.093 458.293L558.207 487.128L604.671 464.445Z" fill="#505F98"/>
<path d="M604.671 464.445L590.557 435.61L544.093 458.293L558.207 487.128L604.671 464.445Z" fill="url(#paint1_linear)"/>
<path d="M590.574 435.826L576.461 406.991L529.996 429.674L544.11 458.509L590.574 435.826Z" fill="#505F98"/>
<path d="M590.574 435.826L576.461 406.991L529.996 429.674L544.11 458.509L590.574 435.826Z" fill="url(#paint2_linear)"/>
<path d="M576.438 407.237L562.324 378.402L515.86 401.085L529.973 429.92L576.438 407.237Z" fill="#505F98"/>
<path d="M576.438 407.237L562.324 378.402L515.86 401.085L529.973 429.92L576.438 407.237Z" fill="url(#paint3_linear)"/>
<path d="M562.332 378.599L548.218 349.764L501.754 372.447L515.868 401.282L562.332 378.599Z" fill="#505F98"/>
<path d="M548.216 350.01L534.103 321.175L487.639 343.858L501.752 372.693L548.216 350.01Z" fill="#505F98"/>
<path d="M534.12 321.391L520.006 292.556L473.542 315.239L487.655 344.074L534.12 321.391Z" fill="#505F98"/>
<path d="M549.804 353.598L535.691 324.763L489.227 347.446L503.34 376.281L549.804 353.598Z" fill="url(#paint4_linear)"/>
<path d="M535.679 324.97L521.566 296.135L475.102 318.817L489.215 347.652L535.679 324.97Z" fill="url(#paint5_linear)"/>
<path d="M137.095 818H235.163V900H137.095V818Z" fill="#505F98"/>
<path d="M137.095 818H235.163V900H137.095V818Z" fill="url(#paint6_linear)"/>
<path d="M-65.682 476H433.937C439.112 476 443.307 480.195 443.307 485.37V821.63C443.307 826.805 439.112 831 433.937 831H-65.682C-70.8569 831 -75.052 826.805 -75.052 821.63V485.37C-75.052 480.195 -70.8569 476 -65.682 476Z" fill="#505F98"/>
<path opacity="0.65" d="M-58.04 505.438V799.562C-58.06 804.443 -56.1299 809.129 -52.6899 812.588C-49.2499 816.047 -44.5799 817.994 -39.6999 818H411.961C416.835 817.989 421.506 816.04 424.945 812.582C428.383 809.125 430.309 804.441 430.298 799.562V505.438C430.309 500.559 428.383 495.875 424.945 492.418C421.506 488.96 416.835 487.011 411.961 487H-39.6999C-44.5799 487.006 -49.2499 488.953 -52.6899 492.412C-56.1299 495.871 -58.06 500.557 -58.04 505.438Z" fill="url(#paint7_linear)"/>
<path d="M74.051 890H280.194V911H74.051V890Z" fill="#505F98"/>
<path d="M137.095 878H235.163V890H137.095V878Z" fill="url(#paint8_linear)"/>
<path fill-rule="evenodd" clip-rule="evenodd" d="M80.056 304.241V324.715L92.765 324.819C94.001 334.346 97.625 343.41 103.303 351.181L92.449 362.351L107.328 376.6L118.014 365.578C124.603 370.062 132.038 373.17 139.871 374.714V388H160.441V375.029C169.226 373.76 177.598 370.497 184.911 365.494L193.847 374.316L208.411 359.647L199.538 350.993C205.124 343.219 208.687 334.191 209.908 324.715H224.155V304.241H209.402C207.573 296.093 203.976 288.441 198.864 281.819L207.104 273.332L192.224 259.082L183.794 267.82C176.824 263.214 168.9 260.228 160.61 259.082V245H140.039V259.396C131.67 261.055 123.762 264.493 116.855 269.476L106.317 259.166L91.837 273.709L102.376 284.187C98.244 290.267 95.311 297.073 93.734 304.241H80.056ZM186.197 317.15C186.22 336.211 170.697 351.682 151.526 351.705C142.314 351.733 133.471 348.113 126.949 341.644C120.428 335.176 116.765 326.392 116.771 317.233C116.747 298.172 132.27 282.701 151.442 282.678C170.613 282.655 186.173 298.088 186.197 317.15Z" fill="#505F98"/>
<path fill-rule="evenodd" clip-rule="evenodd" d="M4 338.354L4.91998 350.396L12.43 349.938C13.56 355.475 16.06 360.641 19.72 364.958L13.85 372.021L23.202 379.729L28.961 372.792C33.016 375.13 37.502 376.625 42.15 377.188L42.755 385L54.796 384.104L54.212 376.479C59.297 375.344 64.053 373.056 68.11 369.792L73.745 374.583L81.612 365.396L76.04 360.688C78.969 355.876 80.654 350.414 80.944 344.792L89.062 344.167L88.164 332.146L79.546 332.792C78.122 328.085 75.695 323.743 72.43 320.062L76.875 314.708L67.526 307L62.997 312.5C58.726 310.095 53.971 308.672 49.078 308.333L48.452 300L36.411 300.896L37.058 309.375C32.251 310.714 27.793 313.081 23.995 316.312L17.38 310.708L9.53003 319.896L16.21 325.583C14.04 329.339 12.63 333.477 12.04 337.771L4 338.354ZM66.7 341.243C67.555 352.436 59.163 362.203 47.951 363.062C42.557 363.487 37.216 361.747 33.111 358.228C29.006 354.708 26.476 349.7 26.082 344.312C25.239 333.119 33.642 323.361 44.854 322.514C56.066 321.666 65.845 330.05 66.7 341.243Z" fill="#505F98"/>
<path d="M-58.04 505.513V512H430.298V505.513C430.309 500.614 428.383 495.912 424.944 492.44C421.505 488.968 416.834 487.011 411.959 487H-39.6999C-44.5799 487.006 -49.2499 488.961 -52.6899 492.434C-56.1299 495.907 -58.06 500.613 -58.04 505.513Z" fill="url(#paint9_linear)"/>
<path d="M373.258 544H420.291V771H373.258V544Z" fill="url(#paint10_linear)"/>
<path d="M81.056 560H302.209V769H81.056V560Z" fill="url(#paint11_linear)"/>
<path d="M244.169 658H251.174V667H244.169V658Z" fill="url(#paint12_linear)"/>
<path d="M244.169 616H251.174V625H244.169V616Z" fill="url(#paint13_linear)"/>
<path d="M339.235 658H346.24V667H339.235V658Z" fill="url(#paint14_linear)"/>
<path d="M339.235 616H346.24V625H339.235V616Z" fill="url(#paint15_linear)"/>
<path d="M244.169 571H251.174V580H244.169V571Z" fill="url(#paint16_linear)"/>
<path d="M338.234 571H345.239V580H338.234V571Z" fill="url(#paint17_linear)"/>
<path d="M290.201 571H297.206V580H290.201V571Z" fill="url(#paint18_linear)"/>
<path d="M290.201 658H297.206V667H290.201V658Z" fill="url(#paint19_linear)"/>
<path fill-rule="evenodd" clip-rule="evenodd" d="M333.231 656H255.177V583H333.231V656ZM263.039 648.282H325.369V590.656H263.039V648.282Z" fill="#505F98"/>
<path fill-rule="evenodd" clip-rule="evenodd" d="M333.231 656H255.177V583H333.231V656ZM263.039 648.282H325.369V590.656H263.039V648.282Z" fill="url(#paint20_linear)"/>
<path d="M-51.035 524H49.034V624H-51.035V524Z" fill="url(#paint21_linear)"/>
<path d="M-51.035 634H49.034V734H-51.035V634Z" fill="url(#paint22_linear)"/>
<path opacity="0.65" d="M373.258 543H420.291V556H373.258V543Z" fill="url(#paint23_linear)"/>
<path d="M623.327 474.827L418.199 310.293L370.086 370.118L575.215 534.652L623.327 474.827Z" fill="white"/>
<path d="M594.604 479.455L569.536 459.235L536.954 499.522L562.021 519.742L594.604 479.455Z" fill="#505F98"/>
<path d="M594.604 479.455L569.536 459.235L536.954 499.522L562.021 519.742L594.604 479.455Z" fill="url(#paint24_linear)"/>
<path d="M570.986 459.689L545.954 439.56L513.519 479.79L538.551 499.919L570.986 459.689Z" fill="#505F98"/>
<path d="M570.986 459.689L545.954 439.56L513.519 479.79L538.551 499.919L570.986 459.689Z" fill="url(#paint25_linear)"/>
<path d="M546.042 439.761L521.01 419.633L488.575 459.863L513.607 479.991L546.042 439.761Z" fill="#505F98"/>
<path d="M546.042 439.761L521.01 419.633L488.575 459.863L513.607 479.991L546.042 439.761Z" fill="url(#paint26_linear)"/>
<path d="M521.114 419.847L496.082 399.718L463.647 439.948L488.679 460.077L521.114 419.847Z" fill="#505F98"/>
<path d="M521.114 419.847L496.082 399.718L463.647 439.948L488.679 460.077L521.114 419.847Z" fill="url(#paint27_linear)"/>
<path d="M494.994 399.389L469.927 379.169L437.344 419.456L462.412 439.676L494.994 399.389Z" fill="#505F98"/>
<path d="M469.914 378.99L444.847 358.77L412.264 399.057L437.332 419.277L469.914 378.99Z" fill="#505F98"/>
<path d="M446.307 360.051L421.274 339.923L388.84 380.153L413.872 400.282L446.307 360.051Z" fill="#505F98"/>
<path d="M416.288 403.218L437.387 420L469.325 379.782L448.226 363L416.288 403.218Z" fill="url(#paint28_linear)"/>
<path d="M449.264 362.648L424.232 342.519L391.797 382.749L416.829 402.878L449.264 362.648Z" fill="url(#paint29_linear)"/>
<path d="M500.347 484.15V607H521.361V484.15C521.361 479.61 518.543 475.57 514.343 474.089V461.825C514.343 459.712 512.667 458 510.6 458C508.532 458 506.856 459.712 506.856 461.825V474.297C502.937 475.935 500.369 479.823 500.347 484.15Z" fill="#505F98"/>
<path d="M500.347 484.15V607H521.361V484.15C521.361 479.61 518.543 475.57 514.343 474.089V461.825C514.343 459.712 512.667 458 510.6 458C508.532 458 506.856 459.712 506.856 461.825V474.297C502.937 475.935 500.369 479.823 500.347 484.15Z" fill="url(#paint30_linear)"/>
<path d="M486.58 562H532.125C533.365 562 534.37 563.005 534.37 564.245V568.755C534.37 569.995 533.365 571 532.125 571H486.58C485.341 571 484.335 569.995 484.335 568.755V564.245C484.335 563.005 485.341 562 486.58 562Z" fill="#505F98"/>
<path d="M509.665 644C518.237 644 525.364 631.185 525.364 622.634V566H494.342V622.634C494.342 631.185 501.113 644 509.665 644Z" fill="#505F98"/>
<path d="M486.58 562H532.125C533.365 562 534.37 563.005 534.37 564.245V568.755C534.37 569.995 533.365 571 532.125 571H486.58C485.341 571 484.335 569.995 484.335 568.755V564.245C484.335 563.005 485.341 562 486.58 562Z" fill="url(#paint31_linear)"/>
<path d="M509.665 644C518.237 644 525.364 631.366 525.364 622.937V571H494.342V622.937C494.342 631.366 501.113 644 509.665 644Z" fill="url(#paint32_linear)"/>
<path d="M309.572 704C310.246 700.436 310.671 695.39 309.378 695.043C306.649 694.275 309.572 704 309.572 704Z" fill="#28353D"/>
<path d="M166.313 899.507C166.799 912.102 176.562 958.388 176.879 971.004C176.879 975.202 175.759 981.647 177.111 985.698C179.9 994.284 189.789 993.108 191.078 988.049L191.564 985.53C196.15 961.012 188.775 933.198 191.564 901.186C193.234 881.643 201.01 843.963 206.102 843.711C208.786 843.711 270.044 972.851 275.369 980.807C277.989 984.817 285.363 984.187 288.934 987.42C292.505 990.652 259.182 889.515 245.215 836.07C241.958 825.039 239.834 813.709 238.876 802.252C238.496 795.64 240.63 793.415 234.523 791.463C230.297 790.119 224.444 790.497 219.922 790.182C214.998 789.804 169.208 789.72 169.208 792.953C169.652 810.502 165.13 870.412 166.313 899.507Z" fill="#606161"/>
<path d="M166.313 899.507C166.799 912.102 176.562 958.388 176.879 971.004C176.879 975.202 175.759 981.647 177.111 985.698C179.9 994.284 189.789 993.108 191.078 988.049L191.564 985.53C196.15 961.012 188.775 933.198 191.564 901.186C193.234 881.643 201.01 843.963 206.102 843.711C208.786 843.711 270.044 972.851 275.369 980.807C277.989 984.817 285.363 984.187 288.934 987.42C292.505 990.652 259.182 889.515 245.215 836.07C241.958 825.039 239.834 813.709 238.876 802.252C238.496 795.64 240.63 793.415 234.523 791.463C230.297 790.119 224.444 790.497 219.922 790.182C214.998 789.804 169.208 789.72 169.208 792.953C169.652 810.502 165.13 870.412 166.313 899.507Z" fill="url(#paint33_linear)"/>
<path d="M220.386 631.148C220.771 627.163 222.654 625 224.494 625C226.334 625 227.468 627.12 227.082 631.148C226.995 634.122 224.751 636.597 221.777 637C219.916 637 219.98 635.134 220.386 631.148Z" fill="#FFCD9C"/>
<path d="M187.992 631.159C187.742 627.166 185.906 625 184.007 625C182.107 625 180.876 627.124 181.168 631.159C181.195 634.173 183.44 636.687 186.386 637C188.264 637 188.285 635.152 187.992 631.159Z" fill="#FFCD9C"/>
<path d="M184.268 648.672C184.527 650.777 193.442 660 203.587 660C213.733 660 222.108 651.577 223.878 648.208C225.648 644.839 218.525 601.505 214.402 597.884C210.279 594.262 193.571 596.641 192.168 598.558C188.801 603.085 183.167 640.27 184.268 648.672Z" fill="#F4AD7D"/>
<path d="M188.462 615.977C189.841 616.639 195.257 602.842 196.393 600.525C197.529 598.208 197.346 595.829 195.967 595.167C194.587 594.505 192.559 595.871 191.423 598.167C190.287 600.463 187.103 615.336 188.462 615.977Z" fill="#FFCD9C"/>
<path d="M218.832 614.987C220.263 614.501 216.475 600.179 215.649 597.703C214.823 595.228 212.969 593.599 211.619 594.086C210.269 594.573 209.705 596.984 210.531 599.481C211.357 601.977 217.482 615.474 218.832 614.987Z" fill="#FFCD9C"/>
<path d="M213.155 647H191.392L188.13 667.622C199.986 674.005 206.899 673.301 216.15 666.214L213.155 647Z" fill="#F4AD7D"/>
<path d="M204.141 651.13C204.141 650.75 203.236 650.43 202.14 650.43C201.044 650.43 200.139 650.75 200.139 651.13C200.139 651.51 201.02 651.57 202.14 651.57C203.26 651.57 204.141 651.53 204.141 651.13Z" fill="#F4AD7D"/>
<path d="M183.108 641.808C182.284 636.894 180.94 601.708 184.236 597.051C187.531 592.394 207.259 589.381 210.251 590.108C216.95 591.731 215.779 596.517 215.779 596.517C217.77 596.547 219.72 597.084 221.438 598.076C223.736 599.615 228.57 621.79 224.711 638.56C222.977 646.102 216.148 652.66 204.354 652.981C189.829 653.365 184.106 647.896 183.108 641.808Z" fill="#606161"/>
<path d="M210.169 591.762C208.61 590.448 206.59 589.828 204.57 590.041C198.438 590.008 192.354 591.14 186.635 593.376C183.465 594.488 180.586 596.311 178.215 598.708C175.828 601.173 174.729 604.627 175.247 608.034C176.3 613.047 181.562 616.148 183.289 620.97C184.678 624.837 183.688 628.575 183.646 632.463C183.618 635.606 183.844 638.746 184.32 641.852C185.288 647.906 190.824 653.344 205.033 652.983C216.484 652.664 223.115 646.143 224.799 638.644C227.079 626.198 226.481 613.389 223.052 601.215C216.881 602.648 210.566 603.361 204.233 603.339C197.518 603.395 190.822 602.611 184.299 601.002C183.183 607.503 183.204 620.524 183.562 630.253" fill="#606161"/>
<path d="M245.298 663.954C248.732 664.241 252.04 665.384 254.923 667.28C259.861 671.171 260.236 678.43 260.153 684.748C260.322 693.501 259.715 702.252 258.34 710.897C256.861 718.826 254.173 726.441 251.965 734.202C248.484 746.831 246.656 759.862 246.527 772.966C246.527 780.162 246.652 788.07 242.173 793.697C237.277 799.806 228.61 800.998 220.818 801.438C209.755 802.086 198.651 802.17 187.588 801.709C180.171 801.375 172.275 800.643 166.4 796.082C161.713 792.442 150.733 669.288 159.254 666.171C167.775 663.054 176.942 662.259 185.984 661.506C206.255 659.791 225.339 658.431 245.298 663.954Z" fill="#505F98"/>
<path d="M181.479 919.291C182.566 933.255 185.157 984 185.157 984L191.762 983.77C196.298 959.39 189.003 931.732 191.762 899.899C193.414 880.465 201.106 842.996 206.143 842.746C204.638 830.221 196.173 832.1 196.173 832.1C190.016 841.294 184.706 851.026 180.308 861.178C175.271 874.37 180.371 905.263 181.479 919.291Z" fill="url(#paint34_linear)"/>
<path d="M305.836 985.024C306.867 985.786 307.65 986.83 308.088 988.025C308.322 989.009 308.227 990.04 307.817 990.965C306.65 993.326 304.44 995.019 301.832 995.55C299.256 996.04 296.618 996.131 294.013 995.818L285.672 995.262C283.55 995.212 281.445 994.873 279.417 994.255C277.387 993.627 275.711 992.198 274.788 990.308C274.296 988.916 274.105 987.438 274.225 985.969C274.225 979.164 276.643 973.634 284.192 975.299C292.098 976.765 299.526 980.102 305.836 985.024Z" fill="#505F98"/>
<path d="M167.298 988.063C166.35 988.759 165.631 989.709 165.23 990.797C165.016 991.682 165.1 992.611 165.47 993.446C166.533 995.584 168.562 997.114 170.953 997.579C173.31 998.035 175.727 998.121 178.112 997.834L185.684 997.325C187.611 997.284 189.522 996.985 191.364 996.435C193.221 995.864 194.75 994.566 195.585 992.853C196.033 991.595 196.211 990.26 196.107 988.932C196.107 982.785 193.931 977.72 186.99 979.288C179.794 980.619 173.037 983.63 167.298 988.063Z" fill="#505F98"/>
<path d="M158.11 666C158.11 666 125.394 685.163 115.568 709.389C105.743 733.614 147.748 792 147.748 792L156.737 782.814C156.737 782.814 134.812 738.759 138.201 727.74C141.591 716.721 154.87 706.452 154.87 706.452L158.11 666Z" fill="#505F98"/>
<path d="M251.174 703.859C251.174 703.859 296.663 724.24 315.147 714.238C333.632 704.237 314.602 654 314.602 654L302.223 658.202C302.223 658.202 312.567 683.815 300.733 687.618C288.899 691.421 253.44 666.438 253.44 666.438L251.174 703.859Z" fill="#505F98"/>
<path d="M165.534 790.976C166.842 791.826 167.903 792.968 168.619 794.297C169.049 795.425 169.203 796.629 169.072 797.819C169.151 800.709 167.837 803.479 165.491 805.367C163.842 806.25 161.995 806.76 160.097 806.857C158.934 807.048 157.744 807.048 156.581 806.857C155.394 806.646 154.403 805.888 153.949 804.844C153.794 804.183 153.729 803.507 153.755 802.831C153.604 799.51 151.101 796.793 149.03 794.076C148.53 793.551 148.207 792.9 148.103 792.204C148.115 791.434 148.403 790.69 148.922 790.091C150.325 788.199 153.798 784.717 156.581 785.018C159.364 785.32 163.376 789.326 165.534 790.976Z" fill="#F4AD7D"/>
<path d="M294.415 646.435C293.822 645.611 293.418 644.679 293.228 643.698C293.077 642.683 293.614 641.687 294.569 641.211C296.085 640.647 297.886 642.13 299.38 641.504C299.886 641.235 300.31 640.846 300.611 640.375C302.375 637.945 303.387 635.093 303.533 632.143C303.447 630.571 303.595 628.995 303.972 627.463C304.417 625.886 306 624.849 307.708 625.018C309.114 625.331 309.905 626.689 310.784 627.776C311.662 628.863 313.42 630.158 314.563 631.516C316.513 634.307 317.63 637.55 317.793 640.898C318.408 645.077 318.803 649.861 315.727 652.87C313.354 655.189 306.126 657.927 302.808 656.694C299.139 655.315 296.26 649.444 294.415 646.435Z" fill="#F4AD7D"/>
</g>
<defs>
<linearGradient id="paint0_linear" x1="494.598" y1="560.166" x2="429.844" y2="431.6" gradientUnits="userSpaceOnUse">
<stop stop-color="#010101" stop-opacity="0.01"/>
<stop offset="0.95" stop-color="#010101"/>
</linearGradient>
<linearGradient id="paint1_linear" x1="439.437" y1="556.365" x2="346.583" y2="374.775" gradientUnits="userSpaceOnUse">
<stop stop-color="#010101" stop-opacity="0.01"/>
<stop offset="0.95" stop-color="#010101"/>
</linearGradient>
<linearGradient id="paint2_linear" x1="319.455" y1="565.092" x2="182.101" y2="254.948" gradientUnits="userSpaceOnUse">
<stop stop-color="#010101" stop-opacity="0.01"/>
<stop offset="0.95" stop-color="#010101"/>
</linearGradient>
<linearGradient id="paint3_linear" x1="191.621" y1="581.583" x2="-13.3101" y2="134.178" gradientUnits="userSpaceOnUse">
<stop stop-color="#010101" stop-opacity="0.01"/>
<stop offset="0.36" stop-color="#010101" stop-opacity="0.36"/>
<stop offset="0.95" stop-color="#010101"/>
</linearGradient>
<linearGradient id="paint4_linear" x1="340.274" y1="476.564" x2="223.115" y2="234.969" gradientUnits="userSpaceOnUse">
<stop stop-color="white" stop-opacity="0.01"/>
<stop offset="0.07" stop-color="white" stop-opacity="0.22"/>
<stop offset="0.16" stop-color="white" stop-opacity="0.45"/>
<stop offset="0.25" stop-color="white" stop-opacity="0.65"/>
<stop offset="0.33" stop-color="white" stop-opacity="0.8"/>
<stop offset="0.4" stop-color="white" stop-opacity="0.91"/>
<stop offset="0.46" stop-color="white" stop-opacity="0.98"/>
<stop offset="0.51" stop-color="white"/>
</linearGradient>
<linearGradient id="paint5_linear" x1="418.35" y1="423.444" x2="354.154" y2="287.555" gradientUnits="userSpaceOnUse">
<stop stop-color="white" stop-opacity="0.01"/>
<stop offset="0.07" stop-color="white" stop-opacity="0.22"/>
<stop offset="0.16" stop-color="white" stop-opacity="0.45"/>
<stop offset="0.25" stop-color="white" stop-opacity="0.65"/>
<stop offset="0.33" stop-color="white" stop-opacity="0.8"/>
<stop offset="0.4" stop-color="white" stop-opacity="0.91"/>
<stop offset="0.46" stop-color="white" stop-opacity="0.98"/>
<stop offset="0.51" stop-color="white"/>
</linearGradient>
<linearGradient id="paint6_linear" x1="113.028" y1="886.322" x2="102.607" y2="759.584" gradientUnits="userSpaceOnUse">
<stop stop-color="#010101" stop-opacity="0.01"/>
<stop offset="0.95" stop-color="#010101"/>
</linearGradient>
<linearGradient id="paint7_linear" x1="514.741" y1="423.517" x2="517.456" y2="873.071" gradientUnits="userSpaceOnUse">
<stop stop-color="white" stop-opacity="0.01"/>
<stop offset="0.07" stop-color="white" stop-opacity="0.22"/>
<stop offset="0.16" stop-color="white" stop-opacity="0.45"/>
<stop offset="0.25" stop-color="white" stop-opacity="0.65"/>
<stop offset="0.33" stop-color="white" stop-opacity="0.8"/>
<stop offset="0.4" stop-color="white" stop-opacity="0.91"/>
<stop offset="0.46" stop-color="white" stop-opacity="0.98"/>
<stop offset="0.51" stop-color="white"/>
</linearGradient>
<linearGradient id="paint8_linear" x1="768.395" y1="861.073" x2="768.295" y2="1003.31" gradientUnits="userSpaceOnUse">
<stop stop-color="#010101" stop-opacity="0.01"/>
<stop offset="0.95" stop-color="#010101"/>
</linearGradient>
<linearGradient id="paint9_linear" x1="-384.02" y1="606.966" x2="-418.2" y2="199.855" gradientUnits="userSpaceOnUse">
<stop stop-color="white" stop-opacity="0.01"/>
<stop offset="0.07" stop-color="white" stop-opacity="0.22"/>
<stop offset="0.16" stop-color="white" stop-opacity="0.45"/>
<stop offset="0.25" stop-color="white" stop-opacity="0.65"/>
<stop offset="0.33" stop-color="white" stop-opacity="0.8"/>
<stop offset="0.4" stop-color="white" stop-opacity="0.91"/>
<stop offset="0.46" stop-color="white" stop-opacity="0.98"/>
<stop offset="0.51" stop-color="white"/>
</linearGradient>
<linearGradient id="paint10_linear" x1="442.862" y1="496.87" x2="304.855" y2="865.142" gradientUnits="userSpaceOnUse">
<stop stop-color="white" stop-opacity="0.01"/>
<stop offset="0.07" stop-color="white" stop-opacity="0.22"/>
<stop offset="0.16" stop-color="white" stop-opacity="0.45"/>
<stop offset="0.25" stop-color="white" stop-opacity="0.65"/>
<stop offset="0.33" stop-color="white" stop-opacity="0.8"/>
<stop offset="0.4" stop-color="white" stop-opacity="0.91"/>
<stop offset="0.46" stop-color="white" stop-opacity="0.98"/>
<stop offset="0.51" stop-color="white"/>
</linearGradient>
<linearGradient id="paint11_linear" x1="339.332" y1="519.99" x2="342.657" y2="802.698" gradientUnits="userSpaceOnUse">
<stop stop-color="white" stop-opacity="0.01"/>
<stop offset="0.07" stop-color="white" stop-opacity="0.22"/>
<stop offset="0.16" stop-color="white" stop-opacity="0.45"/>
<stop offset="0.25" stop-color="white" stop-opacity="0.65"/>
<stop offset="0.33" stop-color="white" stop-opacity="0.8"/>
<stop offset="0.4" stop-color="white" stop-opacity="0.91"/>
<stop offset="0.46" stop-color="white" stop-opacity="0.98"/>
<stop offset="0.51" stop-color="white"/>
</linearGradient>
<linearGradient id="paint12_linear" x1="23.4959" y1="711.704" x2="4.30904" y2="133.785" gradientUnits="userSpaceOnUse">
<stop stop-color="#010101" stop-opacity="0.01"/>
<stop offset="0.95" stop-color="#010101"/>
</linearGradient>
<linearGradient id="paint13_linear" x1="24.3479" y1="712.045" x2="5.15903" y2="134.125" gradientUnits="userSpaceOnUse">
<stop stop-color="#010101" stop-opacity="0.01"/>
<stop offset="0.95" stop-color="#010101"/>
</linearGradient>
<linearGradient id="paint14_linear" x1="118.53" y1="709.354" x2="99.3128" y2="131.435" gradientUnits="userSpaceOnUse">
<stop stop-color="#010101" stop-opacity="0.01"/>
<stop offset="0.95" stop-color="#010101"/>
</linearGradient>
<linearGradient id="paint15_linear" x1="119.381" y1="709.694" x2="100.165" y2="131.776" gradientUnits="userSpaceOnUse">
<stop stop-color="#010101" stop-opacity="0.01"/>
<stop offset="0.95" stop-color="#010101"/>
</linearGradient>
<linearGradient id="paint16_linear" x1="25.287" y1="713.545" x2="6.06904" y2="135.627" gradientUnits="userSpaceOnUse">
<stop stop-color="#010101" stop-opacity="0.01"/>
<stop offset="0.95" stop-color="#010101"/>
</linearGradient>
<linearGradient id="paint17_linear" x1="119.317" y1="711.236" x2="100.13" y2="133.317" gradientUnits="userSpaceOnUse">
<stop stop-color="#010101" stop-opacity="0.01"/>
<stop offset="0.95" stop-color="#010101"/>
</linearGradient>
<linearGradient id="paint18_linear" x1="71.3289" y1="712.396" x2="52.1128" y2="134.499" gradientUnits="userSpaceOnUse">
<stop stop-color="#010101" stop-opacity="0.01"/>
<stop offset="0.95" stop-color="#010101"/>
</linearGradient>
<linearGradient id="paint19_linear" x1="69.5129" y1="709.843" x2="50.2968" y2="131.925" gradientUnits="userSpaceOnUse">
<stop stop-color="#010101" stop-opacity="0.01"/>
<stop offset="0.95" stop-color="#010101"/>
</linearGradient>
<linearGradient id="paint20_linear" x1="414.59" y1="724.399" x2="182.358" y2="941.094" gradientUnits="userSpaceOnUse">
<stop stop-color="white" stop-opacity="0.01"/>
<stop offset="0.07" stop-color="white" stop-opacity="0.22"/>
<stop offset="0.16" stop-color="white" stop-opacity="0.45"/>
<stop offset="0.25" stop-color="white" stop-opacity="0.65"/>
<stop offset="0.33" stop-color="white" stop-opacity="0.8"/>
<stop offset="0.4" stop-color="white" stop-opacity="0.91"/>
<stop offset="0.46" stop-color="white" stop-opacity="0.98"/>
<stop offset="0.51" stop-color="white"/>
</linearGradient>
<linearGradient id="paint21_linear" x1="65.723" y1="504.864" x2="67.508" y2="640.026" gradientUnits="userSpaceOnUse">
<stop stop-color="white" stop-opacity="0.01"/>
<stop offset="0.07" stop-color="white" stop-opacity="0.22"/>
<stop offset="0.16" stop-color="white" stop-opacity="0.45"/>
<stop offset="0.25" stop-color="white" stop-opacity="0.65"/>
<stop offset="0.33" stop-color="white" stop-opacity="0.8"/>
<stop offset="0.4" stop-color="white" stop-opacity="0.91"/>
<stop offset="0.46" stop-color="white" stop-opacity="0.98"/>
<stop offset="0.51" stop-color="white"/>
</linearGradient>
<linearGradient id="paint22_linear" x1="65.723" y1="614.864" x2="67.508" y2="750.026" gradientUnits="userSpaceOnUse">
<stop stop-color="white" stop-opacity="0.01"/>
<stop offset="0.07" stop-color="white" stop-opacity="0.22"/>
<stop offset="0.16" stop-color="white" stop-opacity="0.45"/>
<stop offset="0.25" stop-color="white" stop-opacity="0.65"/>
<stop offset="0.33" stop-color="white" stop-opacity="0.8"/>
<stop offset="0.4" stop-color="white" stop-opacity="0.91"/>
<stop offset="0.46" stop-color="white" stop-opacity="0.98"/>
<stop offset="0.51" stop-color="white"/>
</linearGradient>
<linearGradient id="paint23_linear" x1="429.563" y1="540.281" x2="429.581" y2="558.481" gradientUnits="userSpaceOnUse">
<stop stop-color="white" stop-opacity="0.01"/>
<stop offset="0.07" stop-color="white" stop-opacity="0.22"/>
<stop offset="0.16" stop-color="white" stop-opacity="0.45"/>
<stop offset="0.25" stop-color="white" stop-opacity="0.65"/>
<stop offset="0.33" stop-color="white" stop-opacity="0.8"/>
<stop offset="0.4" stop-color="white" stop-opacity="0.91"/>
<stop offset="0.46" stop-color="white" stop-opacity="0.98"/>
<stop offset="0.51" stop-color="white"/>
</linearGradient>
<linearGradient id="paint24_linear" x1="510.264" y1="593.052" x2="396.833" y2="503.635" gradientUnits="userSpaceOnUse">
<stop stop-color="#010101" stop-opacity="0.01"/>
<stop offset="0.95" stop-color="#010101"/>
</linearGradient>
<linearGradient id="paint25_linear" x1="460.425" y1="612.988" x2="299.148" y2="487.867" gradientUnits="userSpaceOnUse">
<stop stop-color="#010101" stop-opacity="0.01"/>
<stop offset="0.95" stop-color="#010101"/>
</linearGradient>
<linearGradient id="paint26_linear" x1="355.481" y1="671.751" x2="99.3161" y2="449.028" gradientUnits="userSpaceOnUse">
<stop stop-color="#010101" stop-opacity="0.01"/>
<stop offset="0.95" stop-color="#010101"/>
</linearGradient>
<linearGradient id="paint27_linear" x1="246.721" y1="740.865" x2="-128.96" y2="422.45" gradientUnits="userSpaceOnUse">
<stop stop-color="#010101" stop-opacity="0.01"/>
<stop offset="0.36" stop-color="#010101" stop-opacity="0.36"/>
<stop offset="0.95" stop-color="#010101"/>
</linearGradient>
<linearGradient id="paint28_linear" x1="398.463" y1="503.751" x2="215.523" y2="372.322" gradientUnits="userSpaceOnUse">
<stop stop-color="white" stop-opacity="0.01"/>
<stop offset="0.07" stop-color="white" stop-opacity="0.22"/>
<stop offset="0.16" stop-color="white" stop-opacity="0.45"/>
<stop offset="0.25" stop-color="white" stop-opacity="0.65"/>
<stop offset="0.33" stop-color="white" stop-opacity="0.8"/>
<stop offset="0.4" stop-color="white" stop-opacity="0.91"/>
<stop offset="0.46" stop-color="white" stop-opacity="0.98"/>
<stop offset="0.51" stop-color="white"/>
</linearGradient>
<linearGradient id="paint29_linear" x1="384.849" y1="501.517" x2="268.991" y2="405.658" gradientUnits="userSpaceOnUse">
<stop stop-color="white" stop-opacity="0.01"/>
<stop offset="0.07" stop-color="white" stop-opacity="0.22"/>
<stop offset="0.16" stop-color="white" stop-opacity="0.45"/>
<stop offset="0.25" stop-color="white" stop-opacity="0.65"/>
<stop offset="0.33" stop-color="white" stop-opacity="0.8"/>
<stop offset="0.4" stop-color="white" stop-opacity="0.91"/>
<stop offset="0.46" stop-color="white" stop-opacity="0.98"/>
<stop offset="0.51" stop-color="white"/>
</linearGradient>
<linearGradient id="paint30_linear" x1="519.262" y1="667.745" x2="481.077" y2="667.767" gradientUnits="userSpaceOnUse">
<stop stop-color="white" stop-opacity="0.01"/>
<stop offset="0.07" stop-color="white" stop-opacity="0.22"/>
<stop offset="0.16" stop-color="white" stop-opacity="0.45"/>
<stop offset="0.25" stop-color="white" stop-opacity="0.65"/>
<stop offset="0.33" stop-color="white" stop-opacity="0.8"/>
<stop offset="0.4" stop-color="white" stop-opacity="0.91"/>
<stop offset="0.46" stop-color="white" stop-opacity="0.98"/>
<stop offset="0.51" stop-color="white"/>
</linearGradient>
<linearGradient id="paint31_linear" x1="592.554" y1="570.2" x2="580.903" y2="608.932" gradientUnits="userSpaceOnUse">
<stop stop-color="#010101" stop-opacity="0.01"/>
<stop offset="0.95" stop-color="#010101"/>
</linearGradient>
<linearGradient id="paint32_linear" x1="567.756" y1="718.933" x2="466.854" y2="720.976" gradientUnits="userSpaceOnUse">
<stop stop-color="#010101" stop-opacity="0.01"/>
<stop offset="0.95" stop-color="#010101"/>
</linearGradient>
<linearGradient id="paint33_linear" x1="164.985" y1="876.512" x2="261.078" y2="711.732" gradientUnits="userSpaceOnUse">
<stop stop-color="#010101" stop-opacity="0.01"/>
<stop offset="0.95" stop-color="#010101"/>
</linearGradient>
<linearGradient id="paint34_linear" x1="163.963" y1="414.892" x2="336.849" y2="419.761" gradientUnits="userSpaceOnUse">
<stop stop-color="#010101" stop-opacity="0.01"/>
<stop offset="0.95" stop-color="#010101"/>
</linearGradient>
<clipPath id="clip0">
<rect width="1023" height="1103" transform="matrix(-1 0 0 1 1023 0)" fill="white"/>
</clipPath>
</defs>
</svg>
