<svg width="540" height="416" viewBox="0 0 540 416" fill="none" xmlns="http://www.w3.org/2000/svg">
<path d="M125.187 288.963L167 222.841L73.3587 162.963L25 239.436L102.453 288.963H125.187Z" fill="#283570"/>
<path fill-rule="evenodd" clip-rule="evenodd" d="M80 307.963H183V287.963H80V307.963ZM181.662 306.673H81.3377V289.253H181.662V306.673Z" fill="white" fill-opacity="0.8"/>
<path d="M171.5 304.963C175.09 304.963 178 302.053 178 298.463C178 294.873 175.09 291.963 171.5 291.963C167.91 291.963 165 294.873 165 298.463C165 302.053 167.91 304.963 171.5 304.963Z" fill="#222F65"/>
<path d="M151.5 304.963C155.09 304.963 158 302.053 158 298.463C158 294.873 155.09 291.963 151.5 291.963C147.91 291.963 145 294.873 145 298.463C145 302.053 147.91 304.963 151.5 304.963Z" fill="#222F65"/>
<path d="M133.5 304.963C137.09 304.963 140 302.053 140 298.463C140 294.873 137.09 291.963 133.5 291.963C129.91 291.963 127 294.873 127 298.463C127 302.053 129.91 304.963 133.5 304.963Z" fill="#222F65"/>
<path d="M114.5 304.963C118.09 304.963 121 302.053 121 298.463C121 294.873 118.09 291.963 114.5 291.963C110.91 291.963 108 294.873 108 298.463C108 302.053 110.91 304.963 114.5 304.963Z" fill="#222F65"/>
<path d="M95.5 304.963C99.0899 304.963 102 302.053 102 298.463C102 294.873 99.0899 291.963 95.5 291.963C91.9101 291.963 89 294.873 89 298.463C89 302.053 91.9101 304.963 95.5 304.963Z" fill="#222F65"/>
<path d="M307.462 76.9039V25.8286H333V0.963013H208V125.963H314.855V113.741C314.855 109.14 316.683 104.728 319.936 101.474C323.19 98.2209 327.602 96.3932 332.203 96.3932H333V76.9039H307.462Z" fill="#283570"/>
<path d="M446 323.963H362V340.963H446V323.963Z" fill="#FFD166"/>
<path d="M463 237.963H340V253.963H463V237.963Z" fill="#283570"/>
<path d="M524 414.963H0V415.963H524V414.963Z" fill="#3F3D56"/>
<path fill-rule="evenodd" clip-rule="evenodd" d="M331.035 415.963H483.965C493.921 415.952 501.989 407.887 502 397.936V113.989C501.989 104.038 493.921 95.9743 483.965 95.963H331.035C321.079 95.9743 313.011 104.038 313 113.989V397.936C313.011 407.887 321.079 415.952 331.035 415.963ZM314.345 113.989C314.356 104.781 321.822 97.318 331.035 97.3075H483.965C493.178 97.318 500.644 104.781 500.655 113.989V397.936C500.644 407.145 493.178 414.608 483.965 414.618H331.035C321.822 414.608 314.356 407.145 314.345 397.936V113.989Z" fill="white" fill-opacity="0.8"/>
<path fill-rule="evenodd" clip-rule="evenodd" d="M386 105.963C386 108.172 387.791 109.963 390 109.963C392.208 109.961 393.998 108.171 394 105.963C394 103.754 392.209 101.963 390 101.963C387.791 101.963 386 103.754 386 105.963ZM387.333 105.963C387.333 104.49 388.527 103.296 390 103.296C391.472 103.298 392.665 104.491 392.667 105.963C392.667 107.436 391.473 108.63 390 108.63C388.527 108.63 387.333 107.436 387.333 105.963Z" fill="white" fill-opacity="0.8"/>
<path d="M430 104.963H400V105.963H430V104.963Z" fill="white" fill-opacity="0.8"/>
<path d="M491 114.963V168.963C461.177 168.962 437.001 144.786 437 114.963H491Z" fill="#222F65"/>
<path fill-rule="evenodd" clip-rule="evenodd" d="M325 397.963H491V114.963H325V397.963ZM489.656 396.619H326.344V116.307H489.656V396.619Z" fill="white" fill-opacity="0.8"/>
<path opacity="0.1" d="M451.5 165.963C461.717 165.963 470 157.68 470 147.463C470 137.246 461.717 128.963 451.5 128.963C441.283 128.963 433 137.246 433 147.463C433 157.68 441.283 165.963 451.5 165.963Z" fill="#010413"/>
<path d="M448.5 167.963C458.717 167.963 467 159.68 467 149.463C467 139.246 458.717 130.963 448.5 130.963C438.283 130.963 430 139.246 430 149.463C430 159.68 438.283 167.963 448.5 167.963Z" fill="#222F65"/>
<path d="M358 125.963H332V134.963H358V125.963Z" fill="white" fill-opacity="0.8"/>
<path d="M372 215.963H346V224.963H372V215.963Z" fill="white" fill-opacity="0.8"/>
<path fill-rule="evenodd" clip-rule="evenodd" d="M347 250.963H471V233.963H347V250.963ZM469.652 249.655H348.348V235.271H469.652V249.655Z" fill="white" fill-opacity="0.8"/>
<path d="M463 288.963H340V304.963H463V288.963Z" fill="#283570"/>
<path d="M372 265.963H346V274.963H372V265.963Z" fill="white" fill-opacity="0.8"/>
<path fill-rule="evenodd" clip-rule="evenodd" d="M347 301.963H471V284.963H347V301.963ZM469.652 300.655H348.348V286.271H469.652V300.655Z" fill="white" fill-opacity="0.8"/>
<path fill-rule="evenodd" clip-rule="evenodd" d="M366 336.963H451V318.963H366V336.963ZM449.651 335.677H367.349V320.249H449.651V335.677Z" fill="white" fill-opacity="0.8"/>
<path d="M466 244.463C466 247.204 464.28 249.651 461.7 250.579C459.121 251.507 456.237 250.716 454.491 248.603L454.484 248.597C452.783 246.533 452.52 243.639 453.82 241.302C455.12 238.965 457.719 237.664 460.368 238.022C463.018 238.38 465.178 240.324 465.812 242.922C465.811 242.924 465.812 242.926 465.813 242.927C465.815 242.928 465.816 242.929 465.818 242.929C465.938 243.431 465.999 243.946 466 244.463Z" fill="#48558D"/>
<path opacity="0.1" d="M466 244.088C466 246.988 464.235 249.575 461.589 250.557C458.943 251.538 455.985 250.702 454.193 248.467L454.187 248.46C454.064 247.929 454.001 247.384 454 246.838C454 243.938 455.765 241.35 458.411 240.369C461.057 239.388 464.015 240.224 465.807 242.459C465.807 242.461 465.807 242.462 465.809 242.464C465.81 242.465 465.812 242.466 465.813 242.466C465.936 242.997 465.999 243.542 466 244.088Z" fill="black"/>
<path d="M462.5 253.963C466.09 253.963 469 251.053 469 247.463C469 243.873 466.09 240.963 462.5 240.963C458.91 240.963 456 243.873 456 247.463C456 251.053 458.91 253.963 462.5 253.963Z" fill="#48558D"/>
<path d="M466 294.463C466 297.204 464.28 299.651 461.7 300.579C459.121 301.507 456.237 300.716 454.491 298.603L454.484 298.597C452.783 296.533 452.52 293.639 453.82 291.302C455.12 288.965 457.719 287.664 460.368 288.022C463.018 288.38 465.178 290.324 465.812 292.922C465.811 292.924 465.812 292.926 465.813 292.927C465.815 292.928 465.816 292.929 465.818 292.929C465.938 293.431 465.999 293.946 466 294.463Z" fill="#48558D"/>
<path opacity="0.1" d="M466 295.088C466 297.988 464.235 300.575 461.589 301.557C458.943 302.538 455.985 301.702 454.193 299.467L454.187 299.46C454.064 298.929 454.001 298.384 454 297.838C454 294.938 455.765 292.35 458.411 291.369C461.057 290.388 464.015 291.224 465.807 293.459C465.807 293.461 465.807 293.462 465.809 293.464C465.81 293.465 465.812 293.466 465.813 293.466C465.936 293.997 465.999 294.542 466 295.088Z" fill="black"/>
<path d="M462.5 304.963C466.09 304.963 469 302.053 469 298.463C469 294.873 466.09 291.963 462.5 291.963C458.91 291.963 456 294.873 456 298.463C456 302.053 458.91 304.963 462.5 304.963Z" fill="#48558D"/>
<path d="M350 32.963H315V67.963H350V32.963Z" fill="#283570"/>
<path fill-rule="evenodd" clip-rule="evenodd" d="M443 49.963C443 54.3812 446.582 57.963 451 57.963C455.416 57.958 458.995 54.3792 459 49.963C459 45.5447 455.418 41.963 451 41.963C446.582 41.963 443 45.5447 443 49.963ZM444.333 49.963C444.333 46.2811 447.318 43.2963 451 43.2963C454.68 43.3005 457.662 46.2828 457.667 49.963C457.667 53.6448 454.682 56.6296 451 56.6296C447.318 56.6296 444.333 53.6448 444.333 49.963Z" fill="white" fill-opacity="0.8"/>
<path fill-rule="evenodd" clip-rule="evenodd" d="M257 170.963H274V153.963H257V170.963ZM272.692 169.655H258.308V155.271H272.692V169.655Z" fill="white" fill-opacity="0.8"/>
<path fill-rule="evenodd" clip-rule="evenodd" d="M523 301.963H540V284.963H523V301.963ZM538.692 300.655H524.308V286.271H538.692V300.655Z" fill="white" fill-opacity="0.8"/>
<path d="M195 184.867L197.998 186.493L208.198 192.029L224.665 200.963L234.262 183.034C236.087 179.631 236.494 175.638 235.392 171.933C234.29 168.229 231.77 165.118 228.387 163.286C221.044 159.293 211.981 160.532 205.96 166.35L205.955 166.356C204.511 167.752 203.292 169.367 202.343 171.142L195 184.867Z" fill="#9F616A"/>
<path d="M240 365.043L238.069 387.923L230.827 388.963L226 362.963L240 365.043Z" fill="#FFB8B8"/>
<path d="M228.352 389.581C228.352 389.581 237.927 384.449 239.943 388.555C239.943 388.555 238.431 400.871 244.479 402.411C250.527 403.95 253.047 414.727 244.479 415.753C235.912 416.78 230.368 413.701 227.344 413.701C224.32 413.701 227.344 402.924 227.344 402.924L228.352 389.581Z" fill="#2F2E41"/>
<path d="M179 365.043L180.931 387.923L188.173 388.963L193 362.963L179 365.043Z" fill="#FFB8B8"/>
<path d="M191.648 389.581C191.648 389.581 182.073 384.449 180.057 388.555C180.057 388.555 181.569 400.871 175.521 402.411C169.473 403.95 166.953 414.727 175.521 415.753C184.088 416.78 189.632 413.701 192.656 413.701C195.68 413.701 192.656 402.924 192.656 402.924L191.648 389.581Z" fill="#2F2E41"/>
<path d="M219.5 188.963C226.956 188.963 233 182.919 233 175.463C233 168.007 226.956 161.963 219.5 161.963C212.044 161.963 206 168.007 206 175.463C206 182.919 212.044 188.963 219.5 188.963Z" fill="#FFB8B8"/>
<path d="M179 200.763L189.495 217.457L201.988 216.445L222.477 217.963C222.477 217.963 224.411 214.047 225.991 210.238C226.855 208.336 227.52 206.347 227.974 204.304C228.474 200.763 221.478 197.222 221.478 197.222C221.478 197.222 221.203 197.171 220.743 197.06C220.134 196.913 219.194 196.67 218.165 196.316C215.841 195.517 213.047 194.161 212.483 192.163C211.483 188.622 218.979 183.563 218.979 183.563L209.984 174.963C209.984 174.963 201.993 186.199 192.288 188.758C191.725 188.909 191.155 189.027 190.579 189.112C190.549 189.117 190.524 189.123 190.494 189.128C179.999 190.645 179 200.763 179 200.763Z" fill="#FFB8B8"/>
<path d="M184.264 196.963L178.477 201.501C178.477 201.501 173.741 223.184 175.319 229.235C176.898 235.286 174.793 240.833 174.793 241.841C174.793 242.85 170.058 280.668 170.058 280.668C170.058 280.668 160.587 300.838 170.584 298.821C180.581 296.804 176.898 276.634 176.898 276.634L189 241.337V211.586L184.264 196.963Z" fill="#FFB8B8"/>
<path d="M224.046 200.963L228.137 203.963L230.183 245.958L245.525 281.955C245.525 281.955 256.776 299.453 249.616 299.953C242.456 300.453 237.854 281.955 237.854 281.955L224.046 247.458L222 213.962L224.046 200.963Z" fill="#FFB8B8"/>
<path d="M190 189.315L198.08 207.963L200 206.956L191.642 188.963L190 189.315Z" fill="#FEDC8C"/>
<path d="M218 196.963L224.452 210.963L226 210.827L225.474 208.444L220.636 197.704C220.013 197.557 219.052 197.316 218 196.963Z" fill="#FEDC8C"/>
<path d="M198.734 202.963C198.734 202.963 208.821 210.041 224.96 207.513C224.96 207.513 229.499 216.613 226.978 221.668C224.456 226.724 230.004 238.857 231.012 240.373C232.021 241.89 243.621 273.234 247.656 307.105C251.69 340.977 262.786 364.232 253.203 367.265C243.621 370.298 223.951 373.837 221.934 370.804C219.917 367.771 216.891 292.444 216.891 292.444L211.343 321.261C211.343 321.261 218.908 370.298 213.36 371.31C207.813 372.321 173.013 369.287 174.021 363.221C175.03 357.154 185.117 325.305 185.117 325.305C185.117 325.305 184.613 261.606 194.7 249.473C194.7 249.473 198.734 242.901 193.187 234.307C187.639 225.712 188.143 212.063 188.143 212.063C188.143 212.063 192.178 212.063 198.734 202.963Z" fill="#FDE7B3"/>
<path d="M197.377 185.986C198.366 189.252 201.167 191.591 204.484 191.923C207.802 192.254 210.989 190.513 212.574 187.504C206.208 178.964 211.668 173.599 222.01 169.541C223.603 166.507 223.251 162.786 221.119 160.123C215.346 159.365 209.548 161.324 205.343 165.452L205.338 165.457L197.991 179.439C196.933 181.447 196.712 183.808 197.377 185.986Z" fill="#9F616A"/>
<path d="M212.5 179.963C213.328 179.963 214 178.62 214 176.963C214 175.306 213.328 173.963 212.5 173.963C211.672 173.963 211 175.306 211 176.963C211 178.62 211.672 179.963 212.5 179.963Z" fill="#FFB8B8"/>
<path d="M218 172.084L233.212 178.963L236 172.822C235.52 170.577 234.514 168.478 233.065 166.695L222.595 161.963L218 172.084Z" fill="#9F616A"/>
<path d="M60 372H59V416H60V372Z" fill="white" fill-opacity="0.8"/>
<path d="M254.5 306.963C258.09 306.963 261 304.053 261 300.463C261 296.873 258.09 293.963 254.5 293.963C250.91 293.963 248 296.873 248 300.463C248 304.053 250.91 306.963 254.5 306.963Z" fill="#222F65"/>
<path d="M38.5 346.963C40.9853 346.963 43 344.948 43 342.463C43 339.978 40.9853 337.963 38.5 337.963C36.0147 337.963 34 339.978 34 342.463C34 344.948 36.0147 346.963 38.5 346.963Z" fill="#FF6584"/>
<path d="M60 371.963C63.866 371.963 67 368.829 67 364.963C67 361.097 63.866 357.963 60 357.963C56.134 357.963 53 361.097 53 364.963C53 368.829 56.134 371.963 60 371.963Z" fill="#FFD166"/>
<path d="M59 395.963C59 395.963 58.0233 374.69 38 377.163L59 395.963Z" fill="white" fill-opacity="0.8"/>
</svg>
