<svg id="Layer_1" enable-background="new 0 0 64 64" height="512" viewBox="0 0 64 64" width="512" xmlns="http://www.w3.org/2000/svg"><path d="m30 56h4v2h-4z"/><path d="m30 27h4v2h-4z"/><path d="m59 17h-1v-2h-2v2h-2.8c-2.4-3.4-5.6-6.1-9.2-8.1v-3.9c0-1.7-1.3-3-3-3h-18c-1.7 0-3 1.3-3 3v3.9c-4.4 2.3-8 5.8-10.5 10.1-4.4.3-7.7 4.1-7.5 8.5.2 2.7 1.7 5.1 4.1 6.5.2 2.4.7 4.8 1.5 7-2.7 1.8-3.5 5.5-1.6 8.3.2.3.5.6.7.9l4.3 4.3 3.3-3.3c1.7 1.6 3.6 2.9 5.7 4v3.8c0 1.7 1.3 3 3 3h18c1.7 0 3-1.3 3-3v-3.9c1.5-.8 2.8-1.6 4.1-2.7 3 3.3 8 3.5 11.3.5s3.5-8 .5-11.3c-.8-.9-1.9-1.6-3-2.1.6-2.1 1-4.3 1.1-6.5h1c1.7 0 3-1.3 3-3v-10c0-1.7-1.3-3-3-3zm1 3v1h-12v-1c0-.6.4-1 1-1h10c.6 0 1 .4 1 1zm-38-15c0-.6.4-1 1-1h18c.6 0 1 .4 1 1v10c0 .6-.4 1-1 1h-6.4l-2.6 2.6-2.6-2.6h-6.4c-.6 0-1-.4-1-1zm-18 22c0-3.3 2.7-6 6-6s6 2.7 6 6-2.7 6-6 6-6-2.7-6-6zm7 24.6-2.8-2.8c-1.5-1.5-1.5-4 0-5.6.7-.7 1.7-1.2 2.8-1.2h.1c2.2 0 3.9 1.8 3.9 3.9 0 1-.4 2.1-1.2 2.8zm31 .4h-20v-26c0-.6.4-1 1-1h18c.6 0 1 .4 1 1zm-1 8h-18c-.6 0-1-.4-1-1v-5h20v5c0 .6-.4 1-1 1zm19-13c0 3.3-2.7 6-6 6s-6-2.7-6-6 2.7-6 6-6 6 2.7 6 6zm-5.1-7.9c-4.4-.5-8.4 2.6-8.9 7-.2 1.6.1 3.3.9 4.7-.9.7-1.9 1.4-2.9 2v-26.8c0-1.7-1.3-3-3-3h-18c-1.7 0-3 1.3-3 3v26.8c-1.5-.9-3-2-4.3-3.2 2-2.6 1.6-6.3-1-8.3-1-.8-2.3-1.3-3.7-1.3h-.1c-.5 0-1 .1-1.5.2-.6-1.7-1.1-3.6-1.3-5.4 4.3 1 8.6-1.7 9.6-6s-1.7-8.6-6-9.6h-.1c2.1-3.3 4.9-6 8.3-8v3.8c0 1.7 1.3 3 3 3h5.6l3.4 3.4 3.4-3.4h5.7c1.7 0 3-1.3 3-3v-3.8c2.6 1.5 4.9 3.5 6.7 5.8h-1.7c-1.7 0-3 1.3-3 3v10c0 1.7 1.3 3 3 3h7c-.1 2.1-.5 4.1-1.1 6.1zm4.1-8.1h-10c-.6 0-1-.4-1-1v-7h12v7c0 .6-.4 1-1 1z"/><path d="m13.6 28.2-2.6-1.7v-3.5h-2v4.5l3.4 2.3z"/><path d="m51 25h2v4h-2z"/><path d="m55 25h2v4h-2z"/><path d="m7 56h8v2h-8z"/><path d="m28 7h12v2h-12z"/><path d="m28 12h12v2h-12z"/><path d="m53 43h2v4h-2z"/><path d="m53 49h2v2h-2z"/><path d="m24 7h2v2h-2z"/><path d="m24 12h2v2h-2z"/></svg>